<?xml version="1.0" encoding="utf-8"?>
<svg xmlns="http://www.w3.org/2000/svg" xmlns:xlink="http://www.w3.org/1999/xlink" version="1.1" id="Ebene_1" x="0px" y="0px" viewBox="0 0 300 300" style="enable-background:new 0 0 300 300;" xml:space="preserve" width="300" height="300">
<style type="text/css">
	.st0{fill:#FFFFFF;}
	.st1{fill:none;}
	.st2{fill:#6DB52D;}
	.st3{fill:#33B6B3;}
	.st4{fill:#3D9663;}
</style>
<circle class="st0" cx="150" cy="150" r="150"/>
<title>logo_conizi</title>
<g id="Ebene_2_1_">
	<g id="Ebene_1-2">
		<g id="logo_conizi">
			<rect y="15.4" class="st1" width="300" height="269.2"/>
			<polygon class="st2" points="137.4,60.9 185.9,134.2 140.5,167.6 118.4,110.9 118.6,93    "/>
			<polygon class="st3" points="127,166 140.5,167.5 187.2,135.8 196.5,111.2 199.4,82.8 127.8,162.6    "/>
			<polygon class="st4" points="135.3,154.3 140.5,167.5 187,135.8 172,113.3    "/>
			<path class="st2" d="M160.5,192.4c-11.8,0-19.7,5.6-19.7,16.8v26.3c0,0.9,0.4,1.8,0.9,2.4c1.3,1.3,3.4,1.3,4.7,0l0,0     c0.6-0.6,0.9-1.4,0.9-2.4v-26.3c0-6.5,6.9-10.2,13.1-10.2c6.5,0,13,3.9,13,10.2v25.9v0.5c0,0.9,0.4,1.8,0.9,2.4     c1.3,1.3,3.4,1.3,4.7,0l0,0c0.6-0.6,0.9-1.4,0.9-2.4v-26.3C180.2,198.2,172.3,192.4,160.5,192.4z"/>
			<path class="st2" d="M123.6,203.9c6.5,6.5,6.5,17,0,23.5c-6.5,6.5-17,6.5-23.5,0l0,0c-6.5-6.5-6.5-17,0-23.5     C106.6,197.5,117.1,197.5,123.6,203.9 M111.8,192.4c-12.9,0-23.3,10.4-23.3,23.3c0,12.9,10.4,23.3,23.3,23.3     c6.1,0,12.1-2.5,16.4-6.9c9.1-9.1,9.1-23.9,0-32.8C123.9,194.9,117.9,192.4,111.8,192.4 M79.6,228.2c-3,2.7-6.9,4.1-10.9,4     c-9.2,0.2-16.8-7-17-16.2s7-16.8,16.2-17c0.2,0,0.6,0,0.8,0c4,0,7.9,1.4,10.9,4.1c0.6,0.5,1.3,0.7,2.1,0.7c1.9,0,3.3-1.5,3.3-3.3     c0-0.9-0.5-1.9-1.2-2.6c-4.1-3.7-9.6-5.7-15.1-5.7c-12.9-0.2-23.5,9.9-23.7,22.7c-0.2,12.9,9.9,23.5,22.7,23.7c0.4,0,0.7,0,1.1,0     c5.6,0.1,11-1.9,15.1-5.6c0.7-0.6,1.1-1.5,1.1-2.5c0-0.9-0.4-1.8-0.9-2.4c-0.6-0.6-1.4-0.9-2.4-0.9     C80.9,227.5,80.2,227.7,79.6,228.2"/>
			<path class="st2" d="M193.2,198.9c1.8-0.1,3.1-1.7,3-3.3c-0.1-1.8-1.7-3.1-3.3-3c-1.7,0.1-3,1.5-3,3.2c0,1.8,1.4,3.1,3.1,3.2     C192.9,198.9,193.1,198.9,193.2,198.9z"/>
			<path class="st2" d="M196.5,235.7c0,1.9-1.5,3.3-3.3,3.3c-0.9,0-1.8-0.4-2.4-0.9c-0.6-0.6-0.9-1.4-0.9-2.4v-29.9     c0.1-1.9,1.7-3.2,3.5-3.1c1.7,0.1,3.1,1.4,3.1,3.1L196.5,235.7L196.5,235.7z"/>
			<path class="st2" d="M251.1,198.9c1.8-0.1,3.1-1.7,3-3.3c-0.1-1.8-1.7-3.1-3.3-3c-1.7,0.1-3,1.5-3,3.2c0,1.8,1.4,3.1,3.1,3.2     C251,198.9,251.1,198.9,251.1,198.9z"/>
			<path class="st2" d="M251.1,202.5c-0.9,0-1.8,0.4-2.4,0.9c-0.6,0.6-0.9,1.4-0.9,2.4v29.9c0,1.9,1.5,3.3,3.3,3.3     c1.9,0,3.3-1.5,3.3-3.3l0,0v-29.9C254.4,203.9,253,202.5,251.1,202.5L251.1,202.5z"/>
			<path class="st2" d="M214.6,229.3c1.7-1.9,19.7-22.1,22.1-24.6c3.9-3.9,3.4-12.3-6-12.3c-4.7,0-21.2,0.1-21.2,0.1     c-1.9,0-3.3,1.5-3.3,3.3c0,0.9,0.4,1.8,0.9,2.4c0.6,0.6,1.4,0.9,2.4,0.9h19.9c0.9-0.1,1.8,0.6,1.9,1.4c0.1,0.5-0.1,1.1-0.5,1.4     c-6.4,7.1-22.2,24.7-23.4,25.8c-3.5,3.5-2.4,11.2,5.6,11.2h23.2c1.8,0,3.3-1.5,3.3-3.3c0-0.9-0.4-1.8-0.9-2.4     c-0.6-0.6-1.4-0.9-2.4-0.9H216c-0.9,0.2-1.9-0.5-2-1.4C213.7,230.3,214,229.6,214.6,229.3z"/>
		</g>
	</g>
</g>
</svg>
