<?xml version="1.0" encoding="utf-8"?>
<svg xmlns="http://www.w3.org/2000/svg" xmlns:xlink="http://www.w3.org/1999/xlink" version="1.1" id="Ebene_1" x="0px" y="0px" viewBox="0 0 300 300" style="enable-background:new 0 0 300 300;" xml:space="preserve" width="300" height="300">
<style type="text/css">
	.st0{fill:#FFFFFF;}
	.st1{fill:#009999;}
</style>
<circle class="st0" cx="150" cy="150" r="150"/>
<g>
	<g>
		<path class="st1" d="M47.2,150.5c-5.9,5.4-7.5,11.5-4.7,18.2c0.1,0.1,0.2,0.2,0.3,0.3c0.1-2.5,1-5,3-7c2.2-2.5,5.1-4.1,8.1-5.5    c6.8-3.1,13.3-4.7,21.2-5.9c5.2-0.7,12.3-1.3,19-1.8c-0.2-5.2-1.8-10.1-4.5-14.3c-9,1.6-17.7,3.8-26.3,6.9    C57.4,143.7,51.7,146.5,47.2,150.5z"/>
		<path class="st1" d="M42.3,148.4c6.5-5.2,14.5-8.3,22.9-10.6c7.6-2.2,15.4-3.8,23.3-5c-5.3-7.3-13.9-12-23.6-12    c-16.1,0-29.2,13-29.2,29.2c0,1.8,0.2,3.7,0.6,5.5C37.5,152.9,39.6,150.6,42.3,148.4z"/>
		<path class="st1" d="M93.5,148.9c-9.4,1.2-18.9,2.4-28,5.3c-3.6,1.2-7,2.4-10,5c-3,2.5-3.8,5.1-1.7,8.4c0.6,1,1.4,2.1,2.4,3.2    c2.2,2.3,4.8,4,7.4,5.9c1.3,0.9,2.7,1.6,4,2.4c15-1.4,26.5-13.9,26.5-29c0-0.3,0-0.8,0-1.2C93.9,148.9,93.8,148.9,93.5,148.9z"/>
	</g>
	<path class="st1" d="M133.9,179.2h-13.7v-19.8c0-1.7-0.1-2.9-0.5-3.6c-0.3-0.7-0.9-1-1.7-1c-2,0-2.9,1.8-2.9,5.5v18.9h-13.8v-58.5   H115v21c0,1.2,0,2.1,0,2.9s0,1.4,0,1.7s-0.1,0.8-0.1,1.3s-0.1,0.9-0.1,1.5c2.2-5.3,5.4-8,9.8-8c3,0,5.3,1.2,6.9,3.3   c1.6,2.2,2.5,5.4,2.5,9.3L133.9,179.2L133.9,179.2z"/>
	<path class="st1" d="M171.7,179.2h-13.8c0.1-1.3,0.2-3,0.3-4.1c0.1-1.2,0.1-2.1,0.2-2.8c-2.4,4.6-5.5,7-9.6,7   c-3.5,0-6.2-1.7-8.3-5.2c-2-3.5-3-8.2-3-14.3c0-5.9,1-10.5,3.1-13.9s5-5.2,8.5-5.2c3.7,0,6.7,2.2,8.9,6.7c0-0.5-0.1-0.8-0.1-1.2   s0-0.6-0.1-0.8l-0.1-2.2l-0.1-1.6h14.1L171.7,179.2L171.7,179.2z M157.7,159.6c0-1.4,0-2.5-0.1-3.5c-0.1-0.9-0.2-1.7-0.5-2.3   c-0.2-0.6-0.6-1-0.9-1.3c-0.3-0.2-0.8-0.3-1.4-0.3c-2.3,0-3.5,3.1-3.5,9.3c0,4.4,1,6.7,3.1,6.7C156.6,168,157.7,165.3,157.7,159.6z   "/>
	<path class="st1" d="M227,179.2h-14.1v-58.5h13.7V141c0,1.7-0.1,3.7-0.2,5.9c1.3-2.2,2.5-3.8,3.8-4.7c1.4-0.9,3-1.4,5-1.4   c3.8,0,6.7,1.7,8.8,5.2s3.1,8.3,3.1,14.5c0,6-1,10.6-3.2,13.9c-2.1,3.3-5.1,5-8.8,5c-1.8,0-3.3-0.5-4.6-1.3c-0.6-0.5-1.3-1-2-1.7   s-1.3-1.6-2-2.8c0,0.5,0,0.8,0.1,1.2c0,0.3,0,0.6,0.1,0.8L227,179.2z M232.8,160.1c0-5.3-1.2-8-3.5-8c-2.1,0-3.1,2.5-3.1,7.5   c0,5.2,1,7.8,3.2,7.8C231.7,167.6,232.8,165,232.8,160.1z"/>
	<path class="st1" d="M264.3,179.2h-13.7v-58.5h13.7V179.2z"/>
	<g>
		<path class="st1" d="M198.4,154.2c-2.8,1.2-8,4.1-10.3,6.6s-2.9,5.2-1.3,8.5c0.5,1,1.2,2.1,1.8,3.2c1.6,2.4,3.2,3.9,5.4,5.6    c0.6,0.5,0.8,0.7,1,0.8c0.7,0.1,1.5,0.2,2.3,0.2c3.7,0,6.7-1.6,8.8-5c2.1-3.3,3.2-8,3.2-13.9c0-3.7-0.3-6.8-1-9.4    C205.5,151.8,201.5,152.9,198.4,154.2z"/>
		<path class="st1" d="M180.5,164.2c1.7-2.7,3.9-4.3,6.3-5.8c5.3-3.2,14.1-6.1,20.2-7.6c0.5-0.1,0.8-0.2,1-0.2    c-0.5-1.7-1.2-3.2-1.8-4.5c-2.1-3.5-5-5.2-8.8-5.2c-2,0-3.7,0.5-5,1.4s-2.5,2.5-3.8,4.8c0.1-2.2,0.2-4.3,0.2-6v-20.5h-13.7V179    h4.7c-0.5-1-0.7-1.5-1-3.2C177.7,171.7,178.2,167.7,180.5,164.2z"/>
	</g>
</g>
</svg>
